Coordinates
version=1
nRows=29
nColumns=24
inDegrees=yes

Units are S.I. units (second, meters, Newtons, ...)
If the header above contains a line with 'inDegrees', this indicates whether rotational values are in degrees (yes) or radians (no).

endheader
time	pelvis_tilt	pelvis_list	pelvis_rotation	pelvis_tx	pelvis_ty	pelvis_tz	hip_flexion_r	hip_adduction_r	hip_rotation_r	knee_angle_r	ankle_angle_r	subtalar_angle_r	mtp_angle_r	hip_flexion_l	hip_adduction_l	hip_rotation_l	knee_angle_l	ankle_angle_l	subtalar_angle_l	mtp_angle_l	lumbar_extension	lumbar_bending	lumbar_rotation
5.200000	10.948142	2.197008	-181.506565	0.252225	0.850296	-1.213386	19.222746	-9.255093	-34.511125	-11.306413	-1.734022	13.274276	0.000000	19.761578	-16.245661	-30.770284	-13.500407	-0.303121	12.936205	0.000000	2.599009	2.833523	0.927924
5.205000	11.002660	2.154094	-181.535373	0.252296	0.850208	-1.213267	19.321355	-9.317296	-34.504749	-11.362514	-1.725819	13.265265	0.000000	19.813338	-16.200486	-30.800445	-13.500577	-0.294367	12.931310	0.000000	2.652381	2.812022	0.956585
5.210000	10.961015	2.203928	-181.592111	0.252263	0.850270	-1.213438	19.280834	-9.239252	-34.472629	-11.357723	-1.726927	13.289308	0.000000	19.751763	-16.279740	-30.838251	-13.504713	-0.304953	12.898669	0.000000	2.605771	2.861876	1.013618
5.215000	11.005510	2.134544	-181.582658	0.252355	0.850180	-1.213328	19.347813	-9.326098	-34.455319	-11.376650	-1.757898	13.284127	0.000000	19.811525	-16.191864	-30.792947	-13.517653	-0.271285	12.950871	0.000000	2.644943	2.800853	0.975713
5.220000	11.007537	2.127774	-181.601219	0.252392	0.850150	-1.213358	19.363551	-9.332629	-34.429591	-11.391540	-1.758410	13.295405	0.000000	19.826055	-16.199804	-30.807988	-13.553473	-0.278186	12.931709	0.000000	2.637882	2.794233	0.978373
5.225000	10.955837	2.192827	-181.665977	0.252350	0.850219	-1.213527	19.318416	-9.238171	-34.395509	-11.398498	-1.740541	13.309330	0.000000	19.763785	-16.334239	-30.999431	-13.589461	-0.298840	12.712730	0.000000	2.580064	2.849156	1.084552
5.230000	10.957075	2.191013	-181.708882	0.252383	0.850255	-1.213491	19.344757	-9.238154	-34.380586	-11.425243	-1.739967	13.304340	0.000000	19.750085	-16.315330	-30.908405	-13.574688	-0.289036	12.762933	0.000000	2.574004	2.860416	1.133564
5.235000	11.023545	2.120804	-181.699841	0.252523	0.850166	-1.213340	19.451880	-9.334908	-34.365949	-11.476284	-1.720599	13.268940	0.000000	19.841513	-16.229603	-30.885856	-13.597075	-0.257895	12.738265	0.000000	2.631207	2.803410	1.090333
5.240000	10.962523	2.177872	-181.725598	0.252484	0.850241	-1.213603	19.367877	-9.241233	-34.326850	-11.438223	-1.715891	13.276554	0.000000	19.784912	-16.340371	-30.980444	-13.639341	-0.294858	12.579354	0.000000	2.562370	2.841929	1.099991
5.245000	10.992113	2.102952	-181.687082	0.252625	0.850155	-1.213449	19.417053	-9.345262	-34.296580	-11.459063	-1.740434	13.248501	0.000000	19.848757	-16.243165	-30.937411	-13.668964	-0.267900	12.539358	0.000000	2.573998	2.779382	1.029252
5.250000	10.983585	2.103485	-181.695433	0.252659	0.850150	-1.213487	19.426076	-9.345932	-34.286883	-11.488732	-1.735212	13.243010	0.000000	19.859561	-16.257605	-30.926316	-13.708449	-0.279543	12.519303	0.000000	2.558405	2.780932	1.046600
5.255000	10.962425	2.149209	-181.743294	0.252694	0.850196	-1.213584	19.428121	-9.281415	-34.270454	-11.512921	-1.688316	13.217621	0.000000	19.834326	-16.303248	-30.815132	-13.715314	-0.244134	12.565948	0.000000	2.522915	2.835217	1.117064
5.260000	11.013500	2.111888	-181.752088	0.252868	0.850100	-1.213392	19.541517	-9.352377	-34.260210	-11.606640	-1.681825	13.162938	0.000000	19.918425	-16.260735	-30.796386	-13.757644	-0.217485	12.514189	0.000000	2.554230	2.829507	1.126192
5.265000	10.957295	2.169822	-181.774357	0.252851	0.850185	-1.213579	19.473607	-9.265235	-34.218717	-11.589934	-1.661252	13.148153	0.000000	19.876647	-16.346940	-30.755557	-13.813608	-0.227648	12.468810	0.000000	2.481169	2.878409	1.131669
5.270000	10.939665	2.164316	-181.752477	0.252974	0.850166	-1.213629	19.465511	-9.276031	-34.210714	-11.601328	-1.671888	13.127635	0.000000	19.909531	-16.375993	-30.804456	-13.904131	-0.233560	12.386077	0.000000	2.438335	2.856822	1.101352
5.275000	10.927938	2.157599	-181.727069	0.253099	0.850141	-1.213686	19.464360	-9.289727	-34.187738	-11.619953	-1.672107	13.116885	0.000000	19.944868	-16.380986	-30.779939	-13.964137	-0.228864	12.368510	0.000000	2.404075	2.832026	1.088981
5.280000	10.972011	2.170443	-181.693104	0.253293	0.850060	-1.213692	19.529668	-9.271963	-34.076906	-11.635215	-1.657614	12.893566	0.000000	20.054835	-16.377678	-30.544008	-14.018949	-0.191693	12.148229	0.000000	2.422378	2.834609	1.057355
5.285000	10.951587	2.177570	-181.705150	0.253375	0.850075	-1.213663	19.549751	-9.283608	-34.064574	-11.709615	-1.656311	12.877767	0.000000	20.070217	-16.401927	-30.541369	-14.091107	-0.200679	12.124047	0.000000	2.373652	2.844366	1.075177
5.290000	11.019179	2.133932	-181.695985	0.253589	0.849926	-1.213518	19.702006	-9.372488	-34.066032	-11.857332	-1.551464	12.788653	0.000000	20.205172	-16.360424	-30.474057	-14.180278	-0.166248	12.023206	0.000000	2.415916	2.805297	1.100818
5.295000	11.055820	2.111122	-181.723748	0.253674	0.849815	-1.213408	19.787819	-9.411109	-33.966682	-11.928408	-1.549214	12.788572	0.000000	20.289754	-16.349187	-30.398717	-14.285510	-0.119112	11.867193	0.000000	2.426720	2.817796	1.088201
5.300000	11.086084	2.074963	-181.682276	0.253932	0.849713	-1.213399	19.874336	-9.472402	-33.896856	-12.017010	-1.546060	12.669725	0.000000	20.400529	-16.296311	-30.133862	-14.370079	-0.136784	11.651959	0.000000	2.414284	2.771485	1.045945
5.305000	11.034144	2.078810	-181.662584	0.254109	0.849739	-1.213504	19.866363	-9.483498	-33.859710	-12.100358	-1.552554	12.662979	0.000000	20.436349	-16.335923	-30.103947	-14.532792	-0.159859	11.625436	0.000000	2.311137	2.750427	1.050508
5.310000	11.112716	2.038124	-181.621022	0.254435	0.849566	-1.213341	20.040339	-9.566679	-33.725334	-12.251951	-1.475615	12.416993	0.000000	20.623000	-16.268466	-29.823482	-14.628635	-0.130042	11.237121	0.000000	2.342635	2.710820	1.026554
5.315000	11.113290	2.045923	-181.596470	0.254716	0.849527	-1.213323	20.126287	-9.594403	-33.659225	-12.404626	-1.385706	12.322858	0.000000	20.734118	-16.281946	-29.618220	-14.785072	-0.049471	11.285603	0.000000	2.274870	2.702501	1.022088
5.320000	11.123620	2.126810	-181.598288	0.255075	0.849502	-1.213478	20.206903	-9.486903	-33.409822	-12.486898	-1.392666	11.883838	0.000000	20.870185	-16.396398	-29.389581	-14.957619	-0.038585	11.030579	0.000000	2.204480	2.767973	1.044527
5.325000	11.110027	2.102038	-181.574648	0.255378	0.849423	-1.213503	20.292663	-9.555349	-33.340744	-12.669634	-1.322829	11.818760	0.000000	20.985240	-16.410872	-29.285690	-15.183899	0.065243	11.011195	0.000000	2.093658	2.758935	0.927456
5.330000	11.055527	2.084388	-181.512034	0.255767	0.849298	-1.213567	20.351200	-9.634996	-33.265565	-12.896378	-1.212996	11.726388	0.000000	21.094342	-16.429758	-29.132943	-15.433600	0.153269	10.972318	0.000000	1.962299	2.686241	0.973244
5.335000	11.118013	2.047215	-181.530968	0.256119	0.849081	-1.213427	20.570141	-9.709632	-32.965751	-13.138096	-1.153587	11.364532	0.000000	21.292435	-16.376977	-28.710925	-15.623342	0.164242	10.367016	0.000000	1.938806	2.678379	0.980035
5.340000	11.264793	1.977216	-181.512600	0.256723	0.848774	-1.213244	20.942006	-9.873095	-32.819361	-13.510811	-1.064693	11.178665	0.000000	21.635655	-16.294012	-28.381089	-15.860651	0.091557	9.840818	0.000000	1.993394	2.612907	1.023734
